<svg version="1.1" id="Layer_1" xmlns="http://www.w3.org/2000/svg" x="0" y="0" viewBox="0 0 512 512" style="enable-background:new 0 0 512 512" xml:space="preserve"><path style="fill:#ff5023" d="M51.417 71.688H0v90.884h19.356c7.5 0 13.581 6.08 13.581 13.581V335.49c0 7.5-6.08 13.581-13.581 13.581H0v91.263h512V349.931h-19.356c-7.5 0-13.581-6.08-13.581-13.581V177.01c0-7.5 6.08-13.581 13.581-13.581H512V71.688H51.417zm324.195 32.619h33.552v24.669h-33.552v-24.669zm-68.194 0h33.552v24.669h-33.552v-24.669zm-68.194 0h33.552v24.669h-33.552v-24.669zm-68.194 0h33.552v24.669H171.03v-24.669zm-68.194 0h33.552v24.669h-33.552v-24.669zm-68.193 0h33.552v24.669H34.643v-24.669zm33.551 303.405H34.643v-25.714h33.552v25.714zm68.194 0h-33.552v-25.714h33.552v25.714zm68.194 0H171.03v-25.714h33.552v25.714zm16.959-58.305H80.638c-12.684 0-22.967-10.283-22.967-22.967V185.537c0-12.684 10.283-22.967 22.967-22.967h140.904c12.684 0 22.967 10.283 22.967 22.967V326.44c-.001 12.684-10.284 22.967-22.968 22.967zm51.235 58.305h-33.552v-25.714h33.552v25.714zm68.194 0h-33.552v-25.714h33.552v25.714zm68.194 0h-33.552v-25.714h33.552v25.714zm-119.547-58.305c-12.684 0-22.967-10.283-22.967-22.967V185.537c0-12.684 10.283-22.967 22.967-22.967h140.904c12.684 0 22.967 10.283 22.967 22.967V326.44c0 12.684-10.283 22.967-22.967 22.967H289.617zm187.74 58.305h-33.552v-25.714h33.552v25.714zm0-278.736h-33.552v-24.669h33.552v24.669z"/><g style="opacity:.34"><path style="fill:#891c00" d="M204.554 407.691v-3.55a1122.431 1122.431 0 0 1-3.26 3.55h3.26z"/><path style="fill:#891c00" d="M386.804 71.667a444.076 444.076 0 0 1-6.902 32.62h29.233v24.669h-33.552s-8.917 19.773-14.242 33.595h69.15c12.684 0 22.967 10.283 22.967 22.967V326.42c0 12.684-10.283 22.967-22.967 22.967H289.59c-11.771 0-21.466-8.857-22.804-20.268-20.918 27.992-42.283 53.195-62.232 75.024v3.549h-3.26a1098.641 1098.641 0 0 1-31.358 32.62h342.036V349.91h-19.355c-7.5 0-13.581-6.08-13.581-13.581v-159.34c0-7.5 6.08-13.581 13.581-13.581h19.356V71.667H386.804zM272.749 407.691h-33.552v-25.714h33.552v25.714zm68.194 0h-33.552v-25.714h33.552v25.714zm68.193 0h-33.552v-25.714h33.552v25.714zm68.194 0h-33.552v-25.714h33.552v25.714zm0-278.735h-33.552v-24.669h33.552v24.669z"/></g></svg>