<?xml version="1.0" encoding="iso-8859-1"?>
<!-- Generator: Adobe Illustrator 19.0.0, SVG Export Plug-In . SVG Version: 6.00 Build 0)  -->
<svg version="1.1" id="Layer_1" xmlns="http://www.w3.org/2000/svg" xmlns:xlink="http://www.w3.org/1999/xlink" x="0px" y="0px"
	 viewBox="0 0 512 512" style="enable-background:new 0 0 512 512;" xml:space="preserve">
<path style="fill:#FF5023;" d="M51.417,71.688H0v25.714v6.906v24.669v1.045v32.55h19.356c7.5,0,13.581,6.08,13.581,13.581V335.49
	c0,7.5-6.08,13.581-13.581,13.581H0V382v25.714v6.906v25.714h512v-25.714v-6.906V382v-32.069h-19.356
	c-7.5,0-13.581-6.08-13.581-13.581V177.01c0-7.5,6.08-13.581,13.581-13.581H512v-33.409v-1.045v-24.669v-6.906V71.688H51.417z
	 M375.612,104.307h33.552v24.669h-33.552V104.307z M307.418,104.307h33.552v24.669h-33.552L307.418,104.307L307.418,104.307z
	 M239.224,104.307h33.552v24.669h-33.552L239.224,104.307L239.224,104.307z M171.03,104.307h33.552v24.669H171.03V104.307z
	 M102.836,104.307h33.552v24.669h-33.552C102.836,128.976,102.836,104.307,102.836,104.307z M34.643,104.307h33.552v24.669H34.643
	V104.307z M68.194,407.712H34.643v-25.714h33.552V407.712z M136.388,407.712h-33.552v-25.714h33.552V407.712z M204.582,407.712
	H171.03v-25.714h33.552V407.712z M221.541,349.407H80.638c-12.684,0-22.967-10.283-22.967-22.967V185.537
	c0-12.684,10.283-22.967,22.967-22.967h45.798h95.106c12.684,0,22.967,10.283,22.967,22.967V326.44
	C244.508,339.124,234.225,349.407,221.541,349.407z M272.776,407.712h-33.552v-25.714h33.552V407.712z M340.97,407.712h-33.552
	v-25.714h33.552L340.97,407.712L340.97,407.712z M409.164,407.712h-33.552v-25.714h33.552V407.712z M289.617,349.407
	c-12.684,0-22.967-10.283-22.967-22.967V185.537c0-12.684,10.283-22.967,22.967-22.967h46.844h94.06
	c12.684,0,22.967,10.283,22.967,22.967V326.44c0,12.684-10.283,22.967-22.967,22.967H289.617z M477.357,407.712h-33.552v-25.714
	h33.552V407.712z M477.357,128.976h-33.552v-24.669h33.552V128.976z"/>
<g style="opacity:0.34;">
	<path style="fill:#891C00;" d="M204.554,407.691v-3.55c-1.091,1.194-2.178,2.376-3.26,3.55H204.554z"/>
	<path style="fill:#891C00;" d="M386.804,71.667c-1.892,10.985-4.205,21.863-6.902,32.62h29.233v24.669h-33.552
		c0,0-8.917,19.773-14.242,33.595h69.15c12.684,0,22.967,10.283,22.967,22.967V326.42c0,12.684-10.283,22.967-22.967,22.967H289.59
		c-11.771,0-21.466-8.857-22.804-20.268c-20.918,27.992-42.283,53.195-62.232,75.024v3.549h-3.26
		c-11.033,11.964-21.594,22.871-31.358,32.62h342.036v-25.714v-6.906v-25.714V349.91h-19.355c-7.5,0-13.581-6.08-13.581-13.581
		v-159.34c0-7.5,6.08-13.581,13.581-13.581h19.356V130v-1.045v-24.669v-6.906V71.667H386.804z M272.749,407.691h-33.552v-25.714
		h33.552V407.691z M340.943,407.691h-33.552v-25.714h33.552L340.943,407.691L340.943,407.691z M409.136,407.691h-33.552v-25.714
		h33.552L409.136,407.691L409.136,407.691z M477.33,407.691h-33.552v-25.714h33.552V407.691z M477.33,128.956h-33.552v-24.669
		h33.552V128.956z"/>
</g>
<g>
</g>
<g>
</g>
<g>
</g>
<g>
</g>
<g>
</g>
<g>
</g>
<g>
</g>
<g>
</g>
<g>
</g>
<g>
</g>
<g>
</g>
<g>
</g>
<g>
</g>
<g>
</g>
<g>
</g>
</svg>
